<svg width="49" height="32" viewBox="0 0 49 32" fill="none" xmlns="http://www.w3.org/2000/svg">
<path d="M1.32 26V9.488H12.912V13.136H7.152V16.064H12.408V19.088H7.152V22.232H12.912V26H1.32ZM22.9738 26.384C21.2458 26.384 19.7338 26.04 18.4378 25.352C17.1578 24.648 16.1578 23.664 15.4378 22.4C14.7338 21.136 14.3818 19.664 14.3818 17.984C14.3818 16.256 14.7498 14.728 15.4858 13.4C16.2378 12.072 17.2618 11.032 18.5578 10.28C19.8698 9.512 21.3738 9.128 23.0698 9.128C24.9578 9.128 26.4378 9.496 27.5098 10.232L26.8618 14.048C26.3978 13.824 25.9098 13.664 25.3978 13.568C24.9018 13.456 24.4298 13.4 23.9818 13.4C22.6698 13.4 21.6378 13.792 20.8858 14.576C20.1338 15.36 19.7578 16.448 19.7578 17.84C19.7578 19.152 20.1178 20.184 20.8378 20.936C21.5738 21.672 22.5898 22.04 23.8858 22.04C24.3978 22.04 24.8618 21.992 25.2778 21.896C25.7098 21.8 26.2378 21.624 26.8618 21.368L27.5338 25.16C26.1418 25.976 24.6218 26.384 22.9738 26.384ZM34.2975 26.384C33.2895 26.384 32.2655 26.256 31.2255 26C30.1855 25.76 29.3055 25.432 28.5855 25.016L29.4495 21.104C30.3775 21.6 31.2415 21.928 32.0415 22.088C32.8575 22.232 33.6095 22.304 34.2975 22.304C34.9375 22.304 35.4175 22.2 35.7375 21.992C36.0735 21.784 36.2415 21.504 36.2415 21.152C36.2415 20.832 36.0575 20.584 35.6895 20.408C35.3215 20.216 34.8415 20.04 34.2495 19.88C33.6735 19.72 33.0575 19.536 32.4015 19.328C31.7455 19.104 31.1215 18.816 30.5295 18.464C29.9535 18.096 29.4815 17.616 29.1135 17.024C28.7455 16.416 28.5615 15.656 28.5615 14.744C28.5615 13.592 28.8415 12.6 29.4015 11.768C29.9615 10.92 30.7615 10.272 31.8015 9.824C32.8415 9.36 34.0655 9.128 35.4735 9.128C36.4175 9.128 37.3375 9.256 38.2335 9.512C39.1455 9.752 39.8735 10.08 40.4175 10.496L39.6015 14.024C38.7855 13.688 38.0495 13.448 37.3935 13.304C36.7535 13.144 36.1455 13.064 35.5695 13.064C34.8975 13.064 34.3855 13.16 34.0335 13.352C33.6815 13.544 33.5055 13.8 33.5055 14.12C33.5055 14.424 33.6895 14.672 34.0575 14.864C34.4255 15.056 34.8975 15.24 35.4735 15.416C36.0495 15.592 36.6655 15.792 37.3215 16.016C37.9775 16.24 38.5935 16.536 39.1695 16.904C39.7455 17.272 40.2175 17.752 40.5855 18.344C40.9535 18.936 41.1375 19.68 41.1375 20.576C41.1375 22.432 40.5295 23.864 39.3135 24.872C38.1135 25.88 36.4415 26.384 34.2975 26.384ZM44.8929 26.144C44.0129 26.144 43.3409 25.912 42.8769 25.448C42.4129 24.968 42.1809 24.384 42.1809 23.696C42.1809 22.992 42.4289 22.416 42.9249 21.968C43.4209 21.504 44.0769 21.272 44.8929 21.272C45.7089 21.272 46.3569 21.512 46.8369 21.992C47.3329 22.472 47.5809 23.04 47.5809 23.696C47.5809 24.432 47.3489 25.024 46.8849 25.472C46.4369 25.92 45.7729 26.144 44.8929 26.144Z" fill="#F4F4F5"/>
</svg>
