<svg width="146" height="56" viewBox="0 0 146 56" fill="none" xmlns="http://www.w3.org/2000/svg">
<rect x="0.5" y="0.5" width="145" height="55" rx="7.5" fill="#09090B"/>
<rect x="0.5" y="0.5" width="145" height="55" rx="7.5" stroke="#A1A1AA"/>
<path d="M38.7075 22.2925L31.7075 15.2925C31.6146 15.1997 31.5042 15.1261 31.3829 15.0759C31.2615 15.0257 31.1314 14.9999 31 15H19C18.4696 15 17.9609 15.2107 17.5858 15.5858C17.2107 15.9609 17 16.4696 17 17V39C17 39.5304 17.2107 40.0391 17.5858 40.4142C17.9609 40.7893 18.4696 41 19 41H37C37.5304 41 38.0391 40.7893 38.4142 40.4142C38.7893 40.0391 39 39.5304 39 39V23C39.0001 22.8686 38.9743 22.7385 38.9241 22.6172C38.8739 22.4958 38.8003 22.3854 38.7075 22.2925ZM32 18.4138L35.5863 22H32V18.4138ZM37 39H19V17H30V23C30 23.2652 30.1054 23.5196 30.2929 23.7071C30.4804 23.8946 30.7348 24 31 24H37V39ZM31.7075 31.2925C31.8005 31.3854 31.8742 31.4957 31.9246 31.6171C31.9749 31.7385 32.0008 31.8686 32.0008 32C32.0008 32.1314 31.9749 32.2615 31.9246 32.3829C31.8742 32.5043 31.8005 32.6146 31.7075 32.7075L28.7075 35.7075C28.6146 35.8005 28.5043 35.8742 28.3829 35.9246C28.2615 35.9749 28.1314 36.0008 28 36.0008C27.8686 36.0008 27.7385 35.9749 27.6171 35.9246C27.4957 35.8742 27.3854 35.8005 27.2925 35.7075L24.2925 32.7075C24.1049 32.5199 23.9994 32.2654 23.9994 32C23.9994 31.7346 24.1049 31.4801 24.2925 31.2925C24.4801 31.1049 24.7346 30.9994 25 30.9994C25.2654 30.9994 25.5199 31.1049 25.7075 31.2925L27 32.5863V27C27 26.7348 27.1054 26.4804 27.2929 26.2929C27.4804 26.1054 27.7348 26 28 26C28.2652 26 28.5196 26.1054 28.7071 26.2929C28.8946 26.4804 29 26.7348 29 27V32.5863L30.2925 31.2925C30.3854 31.1995 30.4957 31.1258 30.6171 31.0754C30.7385 31.0251 30.8686 30.9992 31 30.9992C31.1314 30.9992 31.2615 31.0251 31.3829 31.0754C31.5043 31.1258 31.6146 31.1995 31.7075 31.2925Z" fill="white"/>
<path d="M55.7841 21H52.9588V12.2727H55.8736C56.7287 12.2727 57.4631 12.4474 58.0767 12.7969C58.6903 13.1435 59.1605 13.642 59.4872 14.2926C59.8168 14.9403 59.9815 15.7173 59.9815 16.6236C59.9815 17.5327 59.8153 18.3139 59.483 18.9673C59.1534 19.6207 58.6761 20.1236 58.0511 20.4759C57.4261 20.8253 56.6705 21 55.7841 21ZM54.2756 19.8494H55.7116C56.3764 19.8494 56.929 19.7244 57.3693 19.4744C57.8097 19.2216 58.1392 18.8565 58.358 18.3793C58.5767 17.8991 58.6861 17.3139 58.6861 16.6236C58.6861 15.9389 58.5767 15.358 58.358 14.8807C58.142 14.4034 57.8196 14.0412 57.3906 13.794C56.9616 13.5469 56.429 13.4233 55.7926 13.4233H54.2756V19.8494ZM64.2738 21.1321C63.6602 21.1321 63.1246 20.9915 62.6673 20.7102C62.2099 20.429 61.8548 20.0355 61.6019 19.5298C61.3491 19.0241 61.2227 18.4332 61.2227 17.7571C61.2227 17.0781 61.3491 16.4844 61.6019 15.9759C61.8548 15.4673 62.2099 15.0724 62.6673 14.7912C63.1246 14.5099 63.6602 14.3693 64.2738 14.3693C64.8874 14.3693 65.4229 14.5099 65.8803 14.7912C66.3377 15.0724 66.6928 15.4673 66.9457 15.9759C67.1985 16.4844 67.3249 17.0781 67.3249 17.7571C67.3249 18.4332 67.1985 19.0241 66.9457 19.5298C66.6928 20.0355 66.3377 20.429 65.8803 20.7102C65.4229 20.9915 64.8874 21.1321 64.2738 21.1321ZM64.2781 20.0625C64.6758 20.0625 65.0053 19.9574 65.2667 19.7472C65.5281 19.5369 65.7212 19.2571 65.8462 18.9077C65.9741 18.5582 66.038 18.1733 66.038 17.7528C66.038 17.3352 65.9741 16.9517 65.8462 16.6023C65.7212 16.25 65.5281 15.9673 65.2667 15.7543C65.0053 15.5412 64.6758 15.4347 64.2781 15.4347C63.8775 15.4347 63.5451 15.5412 63.2809 15.7543C63.0195 15.9673 62.8249 16.25 62.6971 16.6023C62.5721 16.9517 62.5096 17.3352 62.5096 17.7528C62.5096 18.1733 62.5721 18.5582 62.6971 18.9077C62.8249 19.2571 63.0195 19.5369 63.2809 19.7472C63.5451 19.9574 63.8775 20.0625 64.2781 20.0625ZM69.967 21L68.0408 14.4545H69.3576L70.6403 19.2614H70.7042L71.9911 14.4545H73.3079L74.5863 19.2401H74.6502L75.9244 14.4545H77.2411L75.3192 21H74.0195L72.69 16.2741H72.592L71.2624 21H69.967ZM79.7244 17.1136V21H78.4503V14.4545H79.6733V15.5199H79.7543C79.9048 15.1733 80.1406 14.8949 80.4616 14.6847C80.7855 14.4744 81.1932 14.3693 81.6847 14.3693C82.1307 14.3693 82.5213 14.4631 82.8565 14.6506C83.1918 14.8352 83.4517 15.1108 83.6364 15.4773C83.821 15.8437 83.9134 16.2969 83.9134 16.8366V21H82.6392V16.9901C82.6392 16.5156 82.5156 16.1449 82.2685 15.8778C82.0213 15.608 81.6818 15.473 81.25 15.473C80.9545 15.473 80.6918 15.5369 80.4616 15.6648C80.2344 15.7926 80.054 15.9801 79.9205 16.2273C79.7898 16.4716 79.7244 16.767 79.7244 17.1136ZM86.8963 12.2727V21H85.6222V12.2727H86.8963ZM91.3675 21.1321C90.7539 21.1321 90.2184 20.9915 89.761 20.7102C89.3036 20.429 88.9485 20.0355 88.6957 19.5298C88.4428 19.0241 88.3164 18.4332 88.3164 17.7571C88.3164 17.0781 88.4428 16.4844 88.6957 15.9759C88.9485 15.4673 89.3036 15.0724 89.761 14.7912C90.2184 14.5099 90.7539 14.3693 91.3675 14.3693C91.9812 14.3693 92.5167 14.5099 92.9741 14.7912C93.4315 15.0724 93.7866 15.4673 94.0394 15.9759C94.2923 16.4844 94.4187 17.0781 94.4187 17.7571C94.4187 18.4332 94.2923 19.0241 94.0394 19.5298C93.7866 20.0355 93.4315 20.429 92.9741 20.7102C92.5167 20.9915 91.9812 21.1321 91.3675 21.1321ZM91.3718 20.0625C91.7695 20.0625 92.0991 19.9574 92.3604 19.7472C92.6218 19.5369 92.815 19.2571 92.94 18.9077C93.0678 18.5582 93.1317 18.1733 93.1317 17.7528C93.1317 17.3352 93.0678 16.9517 92.94 16.6023C92.815 16.25 92.6218 15.9673 92.3604 15.7543C92.0991 15.5412 91.7695 15.4347 91.3718 15.4347C90.9712 15.4347 90.6388 15.5412 90.3746 15.7543C90.1133 15.9673 89.9187 16.25 89.7908 16.6023C89.6658 16.9517 89.6033 17.3352 89.6033 17.7528C89.6033 18.1733 89.6658 18.5582 89.7908 18.9077C89.9187 19.2571 90.1133 19.5369 90.3746 19.7472C90.6388 19.9574 90.9712 20.0625 91.3718 20.0625ZM97.7457 21.1449C97.331 21.1449 96.956 21.0682 96.6207 20.9148C96.2855 20.7585 96.0199 20.5327 95.8239 20.2372C95.6307 19.9418 95.5341 19.5795 95.5341 19.1506C95.5341 18.7812 95.6051 18.4773 95.7472 18.2386C95.8892 18 96.081 17.8111 96.3224 17.6719C96.5639 17.5327 96.8338 17.4276 97.1321 17.3565C97.4304 17.2855 97.7344 17.2315 98.044 17.1946C98.4361 17.1491 98.7543 17.1122 98.9986 17.0838C99.2429 17.0526 99.4205 17.0028 99.5312 16.9347C99.642 16.8665 99.6974 16.7557 99.6974 16.6023V16.5724C99.6974 16.2003 99.5923 15.9119 99.3821 15.7074C99.1747 15.5028 98.8651 15.4006 98.4531 15.4006C98.0241 15.4006 97.6861 15.4957 97.4389 15.6861C97.1946 15.8736 97.0256 16.0824 96.9318 16.3125L95.7344 16.0398C95.8764 15.642 96.0838 15.321 96.3565 15.0767C96.6321 14.8295 96.9489 14.6506 97.3068 14.5398C97.6648 14.4261 98.0412 14.3693 98.4361 14.3693C98.6974 14.3693 98.9744 14.4006 99.267 14.4631C99.5625 14.5227 99.8381 14.6335 100.094 14.7955C100.352 14.9574 100.564 15.1889 100.729 15.4901C100.893 15.7884 100.976 16.1761 100.976 16.6534V21H99.7315V20.1051H99.6804C99.598 20.2699 99.4744 20.4318 99.3097 20.5909C99.1449 20.75 98.9332 20.8821 98.6747 20.9872C98.4162 21.0923 98.1065 21.1449 97.7457 21.1449ZM98.0227 20.1222C98.375 20.1222 98.6761 20.0526 98.9261 19.9134C99.179 19.7741 99.3707 19.5923 99.5014 19.3679C99.6349 19.1406 99.7017 18.8977 99.7017 18.6392V17.7955C99.6563 17.8409 99.5682 17.8835 99.4375 17.9233C99.3097 17.9602 99.1634 17.9929 98.9986 18.0213C98.8338 18.0469 98.6733 18.071 98.517 18.0938C98.3608 18.1136 98.2301 18.1307 98.125 18.1449C97.8778 18.1761 97.652 18.2287 97.4474 18.3026C97.2457 18.3764 97.0838 18.483 96.9616 18.6222C96.8423 18.7585 96.7827 18.9403 96.7827 19.1676C96.7827 19.483 96.8991 19.7216 97.1321 19.8835C97.3651 20.0426 97.6619 20.1222 98.0227 20.1222ZM105.123 21.1278C104.595 21.1278 104.123 20.9929 103.708 20.723C103.297 20.4503 102.973 20.0625 102.737 19.5597C102.504 19.054 102.387 18.4474 102.387 17.7401C102.387 17.0327 102.505 16.4276 102.741 15.9247C102.98 15.4219 103.306 15.0369 103.721 14.7699C104.136 14.5028 104.606 14.3693 105.132 14.3693C105.538 14.3693 105.865 14.4375 106.112 14.5739C106.362 14.7074 106.555 14.8636 106.691 15.0426C106.831 15.2216 106.939 15.3793 107.015 15.5156H107.092V12.2727H108.366V21H107.122V19.9815H107.015C106.939 20.1207 106.828 20.2798 106.683 20.4588C106.541 20.6378 106.345 20.794 106.095 20.9276C105.845 21.0611 105.521 21.1278 105.123 21.1278ZM105.404 20.0412C105.771 20.0412 106.081 19.9446 106.333 19.7514C106.589 19.5554 106.782 19.2841 106.913 18.9375C107.047 18.5909 107.113 18.1875 107.113 17.7273C107.113 17.2727 107.048 16.875 106.917 16.5341C106.787 16.1932 106.595 15.9276 106.342 15.7372C106.089 15.5469 105.777 15.4517 105.404 15.4517C105.021 15.4517 104.701 15.5511 104.446 15.75C104.19 15.9489 103.997 16.2202 103.866 16.5639C103.738 16.9077 103.674 17.2955 103.674 17.7273C103.674 18.1648 103.74 18.5582 103.87 18.9077C104.001 19.2571 104.194 19.5341 104.45 19.7386C104.708 19.9403 105.027 20.0412 105.404 20.0412Z" fill="#A1A1AA"/>
<path d="M53.598 42V27.4545H58.7827C59.9143 27.4545 60.8518 27.6605 61.5952 28.0724C62.3385 28.4844 62.8949 29.0478 63.2642 29.7628C63.6335 30.473 63.8182 31.2732 63.8182 32.1634C63.8182 33.0582 63.6312 33.8632 63.2571 34.5781C62.8878 35.2884 62.3291 35.8518 61.581 36.2685C60.8376 36.6804 59.9025 36.8864 58.7756 36.8864H55.2102V35.0256H58.5767C59.2917 35.0256 59.8717 34.9025 60.3168 34.6562C60.7618 34.4053 61.0885 34.0644 61.2969 33.6335C61.5052 33.2027 61.6094 32.7126 61.6094 32.1634C61.6094 31.6141 61.5052 31.1264 61.2969 30.7003C61.0885 30.2741 60.7595 29.9403 60.3097 29.6989C59.8646 29.4574 59.2775 29.3366 58.5483 29.3366H55.7926V42H53.598ZM70.679 42.2202C69.6563 42.2202 68.7637 41.9858 68.0014 41.517C67.2391 41.0483 66.6473 40.3925 66.2259 39.5497C65.8045 38.7069 65.5938 37.7221 65.5938 36.5952C65.5938 35.4635 65.8045 34.474 66.2259 33.6264C66.6473 32.7789 67.2391 32.1207 68.0014 31.652C68.7637 31.1832 69.6563 30.9489 70.679 30.9489C71.7017 30.9489 72.5942 31.1832 73.3565 31.652C74.1188 32.1207 74.7107 32.7789 75.1321 33.6264C75.5535 34.474 75.7642 35.4635 75.7642 36.5952C75.7642 37.7221 75.5535 38.7069 75.1321 39.5497C74.7107 40.3925 74.1188 41.0483 73.3565 41.517C72.5942 41.9858 71.7017 42.2202 70.679 42.2202ZM70.6861 40.4375C71.349 40.4375 71.8982 40.2623 72.3338 39.9119C72.7694 39.5616 73.0914 39.0952 73.2997 38.5128C73.5128 37.9304 73.6193 37.2888 73.6193 36.5881C73.6193 35.892 73.5128 35.2528 73.2997 34.6705C73.0914 34.0833 72.7694 33.6122 72.3338 33.2571C71.8982 32.902 71.349 32.7244 70.6861 32.7244C70.0185 32.7244 69.4645 32.902 69.0241 33.2571C68.5885 33.6122 68.2642 34.0833 68.0511 34.6705C67.8428 35.2528 67.7386 35.892 67.7386 36.5881C67.7386 37.2888 67.8428 37.9304 68.0511 38.5128C68.2642 39.0952 68.5885 39.5616 69.0241 39.9119C69.4645 40.2623 70.0185 40.4375 70.6861 40.4375ZM78.1346 42V31.0909H80.1871V32.8239H80.3008C80.4996 32.2367 80.85 31.7751 81.3519 31.4389C81.8585 31.098 82.4315 30.9276 83.0707 30.9276C83.2032 30.9276 83.3595 30.9323 83.5394 30.9418C83.7241 30.9512 83.8685 30.9631 83.9727 30.9773V33.0085C83.8874 32.9848 83.7359 32.9588 83.5181 32.9304C83.3003 32.8973 83.0825 32.8807 82.8647 32.8807C82.3628 32.8807 81.9154 32.9872 81.5224 33.2003C81.1341 33.4086 80.8263 33.6998 80.5991 34.0739C80.3718 34.4432 80.2582 34.8646 80.2582 35.3381V42H78.1346ZM91.5472 31.0909V32.7955H85.5884V31.0909H91.5472ZM87.1864 28.4773H89.31V38.7969C89.31 39.2088 89.3716 39.5189 89.4947 39.7273C89.6178 39.9309 89.7764 40.0705 89.9705 40.1463C90.1694 40.2173 90.3848 40.2528 90.6168 40.2528C90.7873 40.2528 90.9364 40.241 91.0643 40.2173C91.1921 40.1937 91.2915 40.1747 91.3626 40.1605L91.7461 41.9148C91.623 41.9621 91.4478 42.0095 91.2205 42.0568C90.9933 42.1089 90.7092 42.1373 90.3683 42.142C89.8095 42.1515 89.2887 42.0521 88.8058 41.8438C88.3228 41.6354 87.9322 41.3134 87.6339 40.8778C87.3356 40.4422 87.1864 39.8954 87.1864 39.2372V28.4773ZM99.0881 31.0909V32.7955H92.9233V31.0909H99.0881ZM94.6136 42V29.8267C94.6136 29.1449 94.7628 28.5791 95.0611 28.1293C95.3594 27.6747 95.7547 27.3362 96.2472 27.1136C96.7396 26.8864 97.2746 26.7727 97.8523 26.7727C98.2784 26.7727 98.643 26.8082 98.946 26.8793C99.2491 26.9455 99.474 27.0071 99.6207 27.0639L99.1236 28.7827C99.0241 28.7543 98.8963 28.7211 98.7401 28.6832C98.5838 28.6406 98.3944 28.6193 98.1719 28.6193C97.6558 28.6193 97.2865 28.7472 97.0639 29.0028C96.8461 29.2585 96.7372 29.6278 96.7372 30.1108V42H94.6136ZM105.445 42.2202C104.422 42.2202 103.529 41.9858 102.767 41.517C102.005 41.0483 101.413 40.3925 100.991 39.5497C100.57 38.7069 100.359 37.7221 100.359 36.5952C100.359 35.4635 100.57 34.474 100.991 33.6264C101.413 32.7789 102.005 32.1207 102.767 31.652C103.529 31.1832 104.422 30.9489 105.445 30.9489C106.467 30.9489 107.36 31.1832 108.122 31.652C108.884 32.1207 109.476 32.7789 109.898 33.6264C110.319 34.474 110.53 35.4635 110.53 36.5952C110.53 37.7221 110.319 38.7069 109.898 39.5497C109.476 40.3925 108.884 41.0483 108.122 41.517C107.36 41.9858 106.467 42.2202 105.445 42.2202ZM105.452 40.4375C106.115 40.4375 106.664 40.2623 107.099 39.9119C107.535 39.5616 107.857 39.0952 108.065 38.5128C108.278 37.9304 108.385 37.2888 108.385 36.5881C108.385 35.892 108.278 35.2528 108.065 34.6705C107.857 34.0833 107.535 33.6122 107.099 33.2571C106.664 32.902 106.115 32.7244 105.452 32.7244C104.784 32.7244 104.23 32.902 103.79 33.2571C103.354 33.6122 103.03 34.0833 102.817 34.6705C102.608 35.2528 102.504 35.892 102.504 36.5881C102.504 37.2888 102.608 37.9304 102.817 38.5128C103.03 39.0952 103.354 39.5616 103.79 39.9119C104.23 40.2623 104.784 40.4375 105.452 40.4375ZM115.024 27.4545V42H112.9V27.4545H115.024ZM117.881 42V31.0909H120.004V42H117.881ZM118.953 29.4077C118.584 29.4077 118.267 29.2846 118.001 29.0384C117.741 28.7874 117.611 28.4891 117.611 28.1435C117.611 27.7931 117.741 27.4948 118.001 27.2486C118.267 26.9976 118.584 26.8722 118.953 26.8722C119.322 26.8722 119.637 26.9976 119.898 27.2486C120.163 27.4948 120.295 27.7931 120.295 28.1435C120.295 28.4891 120.163 28.7874 119.898 29.0384C119.637 29.2846 119.322 29.4077 118.953 29.4077ZM127.456 42.2202C126.434 42.2202 125.541 41.9858 124.779 41.517C124.016 41.0483 123.425 40.3925 123.003 39.5497C122.582 38.7069 122.371 37.7221 122.371 36.5952C122.371 35.4635 122.582 34.474 123.003 33.6264C123.425 32.7789 124.016 32.1207 124.779 31.652C125.541 31.1832 126.434 30.9489 127.456 30.9489C128.479 30.9489 129.372 31.1832 130.134 31.652C130.896 32.1207 131.488 32.7789 131.909 33.6264C132.331 34.474 132.542 35.4635 132.542 36.5952C132.542 37.7221 132.331 38.7069 131.909 39.5497C131.488 40.3925 130.896 41.0483 130.134 41.517C129.372 41.9858 128.479 42.2202 127.456 42.2202ZM127.463 40.4375C128.126 40.4375 128.676 40.2623 129.111 39.9119C129.547 39.5616 129.869 39.0952 130.077 38.5128C130.29 37.9304 130.397 37.2888 130.397 36.5881C130.397 35.892 130.29 35.2528 130.077 34.6705C129.869 34.0833 129.547 33.6122 129.111 33.2571C128.676 32.902 128.126 32.7244 127.463 32.7244C126.796 32.7244 126.242 32.902 125.801 33.2571C125.366 33.6122 125.042 34.0833 124.828 34.6705C124.62 35.2528 124.516 35.892 124.516 36.5881C124.516 37.2888 124.62 37.9304 124.828 38.5128C125.042 39.0952 125.366 39.5616 125.801 39.9119C126.242 40.2623 126.796 40.4375 127.463 40.4375Z" fill="#F4F4F5"/>
</svg>
