<svg width="141" height="56" viewBox="0 0 141 56" fill="none" xmlns="http://www.w3.org/2000/svg">
<rect x="0.5" y="0.5" width="140" height="55" rx="7.5" fill="#09090B"/>
<rect x="0.5" y="0.5" width="140" height="55" rx="7.5" stroke="#A1A1AA"/>
<path d="M35.4475 30.105L31.4475 28.105C31.2901 28.0265 31.1147 27.991 30.9391 28.002C30.7636 28.0129 30.594 28.07 30.4475 28.1675L28.6113 29.3925C27.7683 28.9291 27.0747 28.2354 26.6113 27.3925L27.8363 25.5562C27.9337 25.4098 27.9908 25.2402 28.0018 25.0646C28.0128 24.8891 27.9772 24.7137 27.8988 24.5562L25.8988 20.5563C25.8159 20.3888 25.6877 20.248 25.5289 20.1497C25.3701 20.0514 25.1868 19.9995 25 20C23.6739 20 22.4022 20.5268 21.4645 21.4645C20.5268 22.4021 20 23.6739 20 25C20.0033 27.9164 21.1633 30.7123 23.2255 32.7745C25.2877 34.8367 28.0837 35.9967 31 36C31.6566 36 32.3068 35.8707 32.9134 35.6194C33.5201 35.3681 34.0713 34.9998 34.5356 34.5355C34.9999 34.0712 35.3682 33.52 35.6194 32.9134C35.8707 32.3068 36 31.6566 36 31C36.0002 30.8142 35.9485 30.6321 35.851 30.474C35.7534 30.3159 35.6137 30.1881 35.4475 30.105ZM31 34C28.6139 33.9974 26.3262 33.0483 24.639 31.361C22.9517 29.6738 22.0027 27.3861 22 25C21.9998 24.3064 22.24 23.6342 22.6796 23.0977C23.1192 22.5612 23.7312 22.1936 24.4113 22.0575L25.8463 24.9325L24.625 26.75C24.5338 26.8869 24.4777 27.0442 24.4618 27.2079C24.4459 27.3717 24.4706 27.5368 24.5338 27.6888C25.2493 29.3892 26.6021 30.742 28.3025 31.4575C28.4549 31.5235 28.6213 31.5505 28.7867 31.5361C28.9521 31.5217 29.1114 31.4663 29.25 31.375L31.0763 30.1575L33.9513 31.5925C33.8141 32.2734 33.4449 32.8856 32.9067 33.3247C32.3685 33.7637 31.6946 34.0024 31 34ZM28 15C25.7556 14.9995 23.5493 15.5801 21.5958 16.6853C19.6424 17.7905 18.0083 19.3826 16.8527 21.3066C15.6972 23.2307 15.0594 25.4212 15.0015 27.6648C14.9436 29.9085 15.4677 32.1289 16.5225 34.11L15.1038 38.3662C14.9863 38.7186 14.9692 39.0968 15.0545 39.4583C15.1398 39.8199 15.3242 40.1505 15.5868 40.4132C15.8495 40.6759 16.1801 40.8602 16.5417 40.9455C16.9032 41.0308 17.2814 41.0138 17.6338 40.8962L21.89 39.4775C23.6335 40.4048 25.5653 40.9228 27.5388 40.992C29.5123 41.0613 31.4757 40.68 33.2799 39.8772C35.084 39.0743 36.6816 37.871 37.9513 36.3586C39.221 34.8462 40.1294 33.0644 40.6077 31.1484C41.0859 29.2325 41.1214 27.2328 40.7114 25.301C40.3015 23.3693 39.4568 21.5564 38.2416 19.9999C37.0263 18.4434 35.4725 17.1842 33.6979 16.3178C31.9234 15.4515 29.9748 15.0008 28 15ZM28 39C26.0663 39.0013 24.1664 38.4921 22.4925 37.5238C22.37 37.4527 22.2337 37.4085 22.0928 37.394C21.9518 37.3796 21.8095 37.3953 21.675 37.44L17 39L18.5588 34.325C18.6037 34.1907 18.6196 34.0483 18.6054 33.9074C18.5911 33.7665 18.5471 33.6301 18.4763 33.5075C17.2637 31.4111 16.7769 28.9732 17.0913 26.572C17.4057 24.1707 18.5038 21.9403 20.2151 20.2267C21.9265 18.5132 24.1555 17.4123 26.5564 17.0949C28.9573 16.7775 31.3958 17.2612 33.4937 18.4711C35.5916 19.681 37.2316 21.5494 38.1592 23.7864C39.0869 26.0235 39.2504 28.5042 38.6243 30.8436C37.9983 33.1831 36.6177 35.2505 34.6967 36.7253C32.7758 38.2 30.4218 38.9996 28 39Z" fill="white"/>
<path d="M54.6676 21L52.2472 12.2727H53.6321L55.3324 19.0312H55.4134L57.1818 12.2727H58.554L60.3224 19.0355H60.4034L62.0994 12.2727H63.4886L61.0639 21H59.7386L57.902 14.4631H57.8338L55.9972 21H54.6676ZM65.8612 17.1136V21H64.587V12.2727H65.8441V15.5199H65.9251C66.0785 15.1676 66.3129 14.8878 66.6282 14.6804C66.9435 14.473 67.3555 14.3693 67.864 14.3693C68.3129 14.3693 68.7049 14.4616 69.0401 14.6463C69.3782 14.831 69.6396 15.1065 69.8242 15.473C70.0117 15.8366 70.1055 16.2912 70.1055 16.8366V21H68.8313V16.9901C68.8313 16.5099 68.7077 16.1378 68.4606 15.8736C68.2134 15.6065 67.8697 15.473 67.4293 15.473C67.1282 15.473 66.8583 15.5369 66.6197 15.6648C66.3839 15.7926 66.1978 15.9801 66.0614 16.2273C65.9279 16.4716 65.8612 16.767 65.8612 17.1136ZM73.7106 21.1449C73.2958 21.1449 72.9208 21.0682 72.5856 20.9148C72.2504 20.7585 71.9847 20.5327 71.7887 20.2372C71.5955 19.9418 71.4989 19.5795 71.4989 19.1506C71.4989 18.7812 71.57 18.4773 71.712 18.2386C71.854 18 72.0458 17.8111 72.2873 17.6719C72.5288 17.5327 72.7987 17.4276 73.0969 17.3565C73.3952 17.2855 73.6992 17.2315 74.0089 17.1946C74.4009 17.1491 74.7191 17.1122 74.9634 17.0838C75.2077 17.0526 75.3853 17.0028 75.4961 16.9347C75.6069 16.8665 75.6623 16.7557 75.6623 16.6023V16.5724C75.6623 16.2003 75.5572 15.9119 75.3469 15.7074C75.1396 15.5028 74.8299 15.4006 74.418 15.4006C73.989 15.4006 73.6509 15.4957 73.4038 15.6861C73.1594 15.8736 72.9904 16.0824 72.8967 16.3125L71.6992 16.0398C71.8413 15.642 72.0487 15.321 72.3214 15.0767C72.5969 14.8295 72.9137 14.6506 73.2717 14.5398C73.6296 14.4261 74.006 14.3693 74.4009 14.3693C74.6623 14.3693 74.9393 14.4006 75.2319 14.4631C75.5273 14.5227 75.8029 14.6335 76.0586 14.7955C76.3171 14.9574 76.5288 15.1889 76.6935 15.4901C76.8583 15.7884 76.9407 16.1761 76.9407 16.6534V21H75.6964V20.1051H75.6452C75.5629 20.2699 75.4393 20.4318 75.2745 20.5909C75.1097 20.75 74.8981 20.8821 74.6396 20.9872C74.381 21.0923 74.0714 21.1449 73.7106 21.1449ZM73.9876 20.1222C74.3398 20.1222 74.641 20.0526 74.891 19.9134C75.1438 19.7741 75.3356 19.5923 75.4663 19.3679C75.5998 19.1406 75.6665 18.8977 75.6665 18.6392V17.7955C75.6211 17.8409 75.533 17.8835 75.4023 17.9233C75.2745 17.9602 75.1282 17.9929 74.9634 18.0213C74.7987 18.0469 74.6381 18.071 74.4819 18.0938C74.3256 18.1136 74.195 18.1307 74.0898 18.1449C73.8427 18.1761 73.6168 18.2287 73.4123 18.3026C73.2106 18.3764 73.0487 18.483 72.9265 18.6222C72.8072 18.7585 72.7475 18.9403 72.7475 19.1676C72.7475 19.483 72.864 19.7216 73.0969 19.8835C73.3299 20.0426 73.6268 20.1222 73.9876 20.1222ZM81.6932 14.4545V15.4773H78.1179V14.4545H81.6932ZM79.0767 12.8864H80.3509V19.0781C80.3509 19.3253 80.3878 19.5114 80.4616 19.6364C80.5355 19.7585 80.6307 19.8423 80.7472 19.8878C80.8665 19.9304 80.9957 19.9517 81.1349 19.9517C81.2372 19.9517 81.3267 19.9446 81.4034 19.9304C81.4801 19.9162 81.5398 19.9048 81.5824 19.8963L81.8125 20.9489C81.7386 20.9773 81.6335 21.0057 81.4972 21.0341C81.3608 21.0653 81.1903 21.0824 80.9858 21.0852C80.6506 21.0909 80.3381 21.0312 80.0483 20.9062C79.7585 20.7812 79.5241 20.5881 79.3452 20.3267C79.1662 20.0653 79.0767 19.7372 79.0767 19.3423V12.8864ZM87.902 16.0526L86.7472 16.2571C86.6989 16.1094 86.6222 15.9687 86.517 15.8352C86.4148 15.7017 86.2756 15.5923 86.0994 15.5071C85.9233 15.4219 85.7031 15.3793 85.4389 15.3793C85.0781 15.3793 84.777 15.4602 84.5355 15.6222C84.294 15.7812 84.1733 15.9872 84.1733 16.2401C84.1733 16.4588 84.2543 16.6349 84.4162 16.7685C84.5781 16.902 84.8395 17.0114 85.2003 17.0966L86.2401 17.3352C86.8423 17.4744 87.2912 17.6889 87.5866 17.9787C87.8821 18.2685 88.0298 18.6449 88.0298 19.108C88.0298 19.5 87.9162 19.8494 87.6889 20.1562C87.4645 20.4602 87.1506 20.6989 86.7472 20.8722C86.3466 21.0455 85.8821 21.1321 85.3537 21.1321C84.6207 21.1321 84.0227 20.9759 83.5597 20.6634C83.0966 20.348 82.8125 19.9006 82.7074 19.321L83.9389 19.1335C84.0156 19.4545 84.1733 19.6974 84.4119 19.8622C84.6506 20.0241 84.9616 20.1051 85.3452 20.1051C85.7628 20.1051 86.0966 20.0185 86.3466 19.8452C86.5966 19.669 86.7216 19.4545 86.7216 19.2017C86.7216 18.9972 86.6449 18.8253 86.4915 18.6861C86.3409 18.5469 86.1094 18.4418 85.7969 18.3707L84.6889 18.1278C84.0781 17.9886 83.6264 17.767 83.3338 17.4631C83.044 17.1591 82.8991 16.7741 82.8991 16.3082C82.8991 15.9219 83.0071 15.5838 83.223 15.294C83.4389 15.0043 83.7372 14.7784 84.1179 14.6165C84.4986 14.4517 84.9347 14.3693 85.4261 14.3693C86.1335 14.3693 86.6903 14.5227 87.0966 14.8295C87.5028 15.1335 87.7713 15.5412 87.902 16.0526ZM91.3356 21.1449C90.9208 21.1449 90.5458 21.0682 90.2106 20.9148C89.8754 20.7585 89.6097 20.5327 89.4137 20.2372C89.2205 19.9418 89.1239 19.5795 89.1239 19.1506C89.1239 18.7812 89.195 18.4773 89.337 18.2386C89.479 18 89.6708 17.8111 89.9123 17.6719C90.1538 17.5327 90.4237 17.4276 90.7219 17.3565C91.0202 17.2855 91.3242 17.2315 91.6339 17.1946C92.0259 17.1491 92.3441 17.1122 92.5884 17.0838C92.8327 17.0526 93.0103 17.0028 93.1211 16.9347C93.2319 16.8665 93.2873 16.7557 93.2873 16.6023V16.5724C93.2873 16.2003 93.1822 15.9119 92.9719 15.7074C92.7646 15.5028 92.4549 15.4006 92.043 15.4006C91.614 15.4006 91.2759 15.4957 91.0288 15.6861C90.7844 15.8736 90.6154 16.0824 90.5217 16.3125L89.3242 16.0398C89.4663 15.642 89.6737 15.321 89.9464 15.0767C90.2219 14.8295 90.5387 14.6506 90.8967 14.5398C91.2546 14.4261 91.631 14.3693 92.0259 14.3693C92.2873 14.3693 92.5643 14.4006 92.8569 14.4631C93.1523 14.5227 93.4279 14.6335 93.6836 14.7955C93.9421 14.9574 94.1538 15.1889 94.3185 15.4901C94.4833 15.7884 94.5657 16.1761 94.5657 16.6534V21H93.3214V20.1051H93.2702C93.1879 20.2699 93.0643 20.4318 92.8995 20.5909C92.7347 20.75 92.5231 20.8821 92.2646 20.9872C92.006 21.0923 91.6964 21.1449 91.3356 21.1449ZM91.6126 20.1222C91.9648 20.1222 92.266 20.0526 92.516 19.9134C92.7688 19.7741 92.9606 19.5923 93.0913 19.3679C93.2248 19.1406 93.2915 18.8977 93.2915 18.6392V17.7955C93.2461 17.8409 93.158 17.8835 93.0273 17.9233C92.8995 17.9602 92.7532 17.9929 92.5884 18.0213C92.4237 18.0469 92.2631 18.071 92.1069 18.0938C91.9506 18.1136 91.82 18.1307 91.7148 18.1449C91.4677 18.1761 91.2418 18.2287 91.0373 18.3026C90.8356 18.3764 90.6737 18.483 90.5515 18.6222C90.4322 18.7585 90.3725 18.9403 90.3725 19.1676C90.3725 19.483 90.489 19.7216 90.7219 19.8835C90.9549 20.0426 91.2518 20.1222 91.6126 20.1222ZM96.2628 23.4545V14.4545H97.5071V15.5156H97.6136C97.6875 15.3793 97.794 15.2216 97.9332 15.0426C98.0724 14.8636 98.2656 14.7074 98.5128 14.5739C98.7599 14.4375 99.0866 14.3693 99.4929 14.3693C100.021 14.3693 100.493 14.5028 100.908 14.7699C101.322 15.0369 101.648 15.4219 101.884 15.9247C102.122 16.4276 102.241 17.0327 102.241 17.7401C102.241 18.4474 102.124 19.054 101.888 19.5597C101.652 20.0625 101.328 20.4503 100.916 20.723C100.504 20.9929 100.034 21.1278 99.5057 21.1278C99.108 21.1278 98.7827 21.0611 98.5298 20.9276C98.2798 20.794 98.0838 20.6378 97.9418 20.4588C97.7997 20.2798 97.6903 20.1207 97.6136 19.9815H97.5369V23.4545H96.2628ZM97.5114 17.7273C97.5114 18.1875 97.5781 18.5909 97.7116 18.9375C97.8452 19.2841 98.0384 19.5554 98.2912 19.7514C98.544 19.9446 98.8537 20.0412 99.2202 20.0412C99.6009 20.0412 99.919 19.9403 100.175 19.7386C100.43 19.5341 100.624 19.2571 100.754 18.9077C100.888 18.5582 100.955 18.1648 100.955 17.7273C100.955 17.2955 100.889 16.9077 100.759 16.5639C100.631 16.2202 100.438 15.9489 100.179 15.75C99.9233 15.5511 99.6037 15.4517 99.2202 15.4517C98.8509 15.4517 98.5384 15.5469 98.2827 15.7372C98.0298 15.9276 97.8381 16.1932 97.7074 16.5341C97.5767 16.875 97.5114 17.2727 97.5114 17.7273ZM103.669 23.4545V14.4545H104.913V15.5156H105.02C105.094 15.3793 105.2 15.2216 105.339 15.0426C105.479 14.8636 105.672 14.7074 105.919 14.5739C106.166 14.4375 106.493 14.3693 106.899 14.3693C107.428 14.3693 107.899 14.5028 108.314 14.7699C108.729 15.0369 109.054 15.4219 109.29 15.9247C109.528 16.4276 109.648 17.0327 109.648 17.7401C109.648 18.4474 109.53 19.054 109.294 19.5597C109.058 20.0625 108.734 20.4503 108.322 20.723C107.911 20.9929 107.44 21.1278 106.912 21.1278C106.514 21.1278 106.189 21.0611 105.936 20.9276C105.686 20.794 105.49 20.6378 105.348 20.4588C105.206 20.2798 105.097 20.1207 105.02 19.9815H104.943V23.4545H103.669ZM104.918 17.7273C104.918 18.1875 104.984 18.5909 105.118 18.9375C105.251 19.2841 105.445 19.5554 105.697 19.7514C105.95 19.9446 106.26 20.0412 106.626 20.0412C107.007 20.0412 107.325 19.9403 107.581 19.7386C107.837 19.5341 108.03 19.2571 108.161 18.9077C108.294 18.5582 108.361 18.1648 108.361 17.7273C108.361 17.2955 108.295 16.9077 108.165 16.5639C108.037 16.2202 107.844 15.9489 107.585 15.75C107.33 15.5511 107.01 15.4517 106.626 15.4517C106.257 15.4517 105.945 15.5469 105.689 15.7372C105.436 15.9276 105.244 16.1932 105.114 16.5341C104.983 16.875 104.918 17.2727 104.918 17.7273Z" fill="#A1A1AA"/>
<path d="M65.679 32.1847H63.4631C63.3778 31.7112 63.2192 31.2945 62.9872 30.9347C62.7552 30.5748 62.4711 30.2694 62.1349 30.0185C61.7988 29.7675 61.4223 29.5781 61.0057 29.4503C60.5938 29.3224 60.1558 29.2585 59.6918 29.2585C58.8537 29.2585 58.1032 29.4692 57.4403 29.8906C56.7822 30.312 56.2614 30.9299 55.8778 31.7443C55.4991 32.5587 55.3097 33.553 55.3097 34.7273C55.3097 35.911 55.4991 36.91 55.8778 37.7244C56.2614 38.5388 56.7846 39.1544 57.4474 39.571C58.1103 39.9877 58.8561 40.196 59.6847 40.196C60.1439 40.196 60.5795 40.1345 60.9915 40.0114C61.4081 39.8835 61.7846 39.6965 62.1207 39.4503C62.4569 39.2041 62.741 38.9034 62.973 38.5483C63.2098 38.1884 63.3731 37.7765 63.4631 37.3125L65.679 37.3196C65.5606 38.0346 65.331 38.6927 64.9901 39.294C64.6539 39.8906 64.2206 40.4067 63.6903 40.8423C63.1648 41.2732 62.5634 41.607 61.8864 41.8438C61.2093 42.0805 60.4706 42.1989 59.6705 42.1989C58.411 42.1989 57.2888 41.9006 56.304 41.304C55.3191 40.7027 54.5426 39.8433 53.9744 38.7259C53.411 37.6084 53.1293 36.2756 53.1293 34.7273C53.1293 33.1742 53.4134 31.8414 53.9815 30.7287C54.5497 29.6113 55.3262 28.7543 56.3111 28.1577C57.2959 27.5563 58.4157 27.2557 59.6705 27.2557C60.4422 27.2557 61.1619 27.367 61.8295 27.5895C62.5019 27.8073 63.1056 28.1293 63.6406 28.5554C64.1757 28.9768 64.6184 29.4929 64.9688 30.1037C65.3191 30.7098 65.5559 31.4034 65.679 32.1847ZM72.7298 42.2202C71.707 42.2202 70.8145 41.9858 70.0522 41.517C69.2899 41.0483 68.698 40.3925 68.2766 39.5497C67.8552 38.7069 67.6445 37.7221 67.6445 36.5952C67.6445 35.4635 67.8552 34.474 68.2766 33.6264C68.698 32.7789 69.2899 32.1207 70.0522 31.652C70.8145 31.1832 71.707 30.9489 72.7298 30.9489C73.7525 30.9489 74.645 31.1832 75.4073 31.652C76.1696 32.1207 76.7615 32.7789 77.1829 33.6264C77.6043 34.474 77.815 35.4635 77.815 36.5952C77.815 37.7221 77.6043 38.7069 77.1829 39.5497C76.7615 40.3925 76.1696 41.0483 75.4073 41.517C74.645 41.9858 73.7525 42.2202 72.7298 42.2202ZM72.7369 40.4375C73.3997 40.4375 73.949 40.2623 74.3846 39.9119C74.8202 39.5616 75.1422 39.0952 75.3505 38.5128C75.5636 37.9304 75.6701 37.2888 75.6701 36.5881C75.6701 35.892 75.5636 35.2528 75.3505 34.6705C75.1422 34.0833 74.8202 33.6122 74.3846 33.2571C73.949 32.902 73.3997 32.7244 72.7369 32.7244C72.0692 32.7244 71.5153 32.902 71.0749 33.2571C70.6393 33.6122 70.315 34.0833 70.1019 34.6705C69.8936 35.2528 69.7894 35.892 69.7894 36.5881C69.7894 37.2888 69.8936 37.9304 70.1019 38.5128C70.315 39.0952 70.6393 39.5616 71.0749 39.9119C71.5153 40.2623 72.0692 40.4375 72.7369 40.4375ZM82.3089 35.5227V42H80.1854V31.0909H82.2237V32.8665H82.3587C82.6096 32.2888 83.0026 31.8248 83.5376 31.4744C84.0774 31.1241 84.7569 30.9489 85.576 30.9489C86.3194 30.9489 86.9704 31.1051 87.5291 31.4176C88.0878 31.7254 88.5211 32.1847 88.8288 32.7955C89.1366 33.4062 89.2905 34.1615 89.2905 35.0611V42H87.1669V35.3168C87.1669 34.526 86.9609 33.9081 86.549 33.4631C86.1371 33.0133 85.5713 32.7884 84.8516 32.7884C84.3591 32.7884 83.9212 32.8949 83.5376 33.108C83.1589 33.321 82.8582 33.6335 82.6357 34.0455C82.4179 34.4527 82.3089 34.9451 82.3089 35.5227ZM97.2308 31.0909V32.7955H91.272V31.0909H97.2308ZM92.87 28.4773H94.9936V38.7969C94.9936 39.2088 95.0552 39.5189 95.1783 39.7273C95.3014 39.9309 95.46 40.0705 95.6541 40.1463C95.853 40.2173 96.0684 40.2528 96.3004 40.2528C96.4709 40.2528 96.62 40.241 96.7479 40.2173C96.8757 40.1937 96.9751 40.1747 97.0462 40.1605L97.4297 41.9148C97.3066 41.9621 97.1314 42.0095 96.9041 42.0568C96.6768 42.1089 96.3928 42.1373 96.0518 42.142C95.4931 42.1515 94.9723 42.0521 94.4893 41.8438C94.0064 41.6354 93.6158 41.3134 93.3175 40.8778C93.0192 40.4422 92.87 39.8954 92.87 39.2372V28.4773ZM102.755 42.2415C102.063 42.2415 101.438 42.1136 100.88 41.858C100.321 41.5975 99.8782 41.2211 99.5515 40.7287C99.2295 40.2363 99.0685 39.6326 99.0685 38.9176C99.0685 38.3021 99.1869 37.7955 99.4237 37.3977C99.6604 37 99.98 36.6851 100.382 36.4531C100.785 36.2211 101.235 36.0459 101.732 35.9276C102.229 35.8092 102.736 35.7192 103.252 35.6577C103.905 35.5819 104.435 35.5204 104.843 35.473C105.25 35.4209 105.546 35.3381 105.73 35.2244C105.915 35.1108 106.007 34.9261 106.007 34.6705V34.6207C106.007 34.0005 105.832 33.5199 105.482 33.179C105.136 32.8381 104.62 32.6676 103.934 32.6676C103.219 32.6676 102.655 32.8262 102.243 33.1435C101.836 33.456 101.554 33.804 101.398 34.1875L99.4023 33.733C99.6391 33.0701 99.9847 32.535 100.439 32.1278C100.899 31.7159 101.426 31.4176 102.023 31.233C102.62 31.0436 103.247 30.9489 103.905 30.9489C104.341 30.9489 104.802 31.0009 105.29 31.1051C105.783 31.2045 106.242 31.3892 106.668 31.6591C107.099 31.929 107.452 32.3149 107.726 32.8168C108.001 33.3139 108.138 33.9602 108.138 34.7557V42H106.064V40.5085H105.979C105.842 40.7831 105.636 41.053 105.361 41.3182C105.087 41.5833 104.734 41.8035 104.303 41.9787C103.872 42.1539 103.356 42.2415 102.755 42.2415ZM103.216 40.5369C103.803 40.5369 104.305 40.4209 104.722 40.1889C105.143 39.9569 105.463 39.6539 105.681 39.2798C105.903 38.901 106.015 38.4962 106.015 38.0653V36.6591C105.939 36.7348 105.792 36.8059 105.574 36.8722C105.361 36.9337 105.117 36.9882 104.843 37.0355C104.568 37.0781 104.301 37.1184 104.04 37.1562C103.78 37.1894 103.562 37.2178 103.387 37.2415C102.975 37.2936 102.598 37.3812 102.257 37.5043C101.921 37.6274 101.651 37.8049 101.448 38.0369C101.249 38.2642 101.15 38.5672 101.15 38.946C101.15 39.4716 101.344 39.8693 101.732 40.1392C102.12 40.4044 102.615 40.5369 103.216 40.5369ZM116.059 31.0909V32.7955H110.1V31.0909H116.059ZM111.698 28.4773H113.822V38.7969C113.822 39.2088 113.883 39.5189 114.006 39.7273C114.129 39.9309 114.288 40.0705 114.482 40.1463C114.681 40.2173 114.897 40.2528 115.129 40.2528C115.299 40.2528 115.448 40.241 115.576 40.2173C115.704 40.1937 115.803 40.1747 115.874 40.1605L116.258 41.9148C116.135 41.9621 115.96 42.0095 115.732 42.0568C115.505 42.1089 115.221 42.1373 114.88 42.142C114.321 42.1515 113.8 42.0521 113.317 41.8438C112.835 41.6354 112.444 41.3134 112.146 40.8778C111.847 40.4422 111.698 39.8954 111.698 39.2372V28.4773ZM122.886 42.2202C121.863 42.2202 120.971 41.9858 120.208 41.517C119.446 41.0483 118.854 40.3925 118.433 39.5497C118.011 38.7069 117.801 37.7221 117.801 36.5952C117.801 35.4635 118.011 34.474 118.433 33.6264C118.854 32.7789 119.446 32.1207 120.208 31.652C120.971 31.1832 121.863 30.9489 122.886 30.9489C123.909 30.9489 124.801 31.1832 125.564 31.652C126.326 32.1207 126.918 32.7789 127.339 33.6264C127.761 34.474 127.971 35.4635 127.971 36.5952C127.971 37.7221 127.761 38.7069 127.339 39.5497C126.918 40.3925 126.326 41.0483 125.564 41.517C124.801 41.9858 123.909 42.2202 122.886 42.2202ZM122.893 40.4375C123.556 40.4375 124.105 40.2623 124.541 39.9119C124.976 39.5616 125.298 39.0952 125.507 38.5128C125.72 37.9304 125.826 37.2888 125.826 36.5881C125.826 35.892 125.72 35.2528 125.507 34.6705C125.298 34.0833 124.976 33.6122 124.541 33.2571C124.105 32.902 123.556 32.7244 122.893 32.7244C122.225 32.7244 121.672 32.902 121.231 33.2571C120.796 33.6122 120.471 34.0833 120.258 34.6705C120.05 35.2528 119.946 35.892 119.946 36.5881C119.946 37.2888 120.05 37.9304 120.258 38.5128C120.471 39.0952 120.796 39.5616 121.231 39.9119C121.672 40.2623 122.225 40.4375 122.893 40.4375Z" fill="#F4F4F5"/>
</svg>
